<svg width="217" height="124" viewBox="0 0 217 124" fill="none" xmlns="http://www.w3.org/2000/svg">
<path d="M27.7012 75.0645H78.54L78.8216 69.5806L61.4994 65.7481C60.6576 65.5618 59.8407 65.2773 59.0653 64.9003L19.8774 45.8444C18.7205 45.2819 18.0511 44.0443 18.2133 42.7682L19.3361 33.9355L20.7303 27.0806C23.7862 18.0656 32.2469 12 41.7658 12H116L94.6224 33.4785H47.6846L47.2844 38.9888C47.2476 39.4948 47.5956 39.9482 48.094 40.0435L97.4108 49.4731L102.555 51.2241C106.596 52.5995 109.114 56.6239 108.585 60.8594L106.6 76.7586C106.37 78.6 105.418 80.2748 103.954 81.4147L83.9336 97H4L27.7012 75.0645Z" fill="white"/>
<path d="M18.4648 50L20.3239 51.8182L21.5087 52.7451C22.2654 53.3371 23.0905 53.8361 23.9662 54.2314L28.6901 56.3636L51 65L31.0141 62.2727L28.4488 61.8166C26.7633 61.5169 25.1426 60.9271 23.6587 60.0735C20.1963 58.0816 18.1723 54.2903 18.444 50.3051L18.4648 50Z" fill="white"/>
<path d="M88.4067 101.048L133.753 64.0302L145.321 54.3131L176.323 54.3133L176.582 54.3392C179.136 54.5945 181.526 53.0466 182.338 50.6115L184.126 35.8586C184.167 35.5182 184.133 35.1729 184.024 34.8477C183.564 33.4661 182.316 32.4977 180.864 32.394L176.785 32.1027L141.619 32.1027L138.843 54.3132L111.08 75.5979L119.871 10.818L197.088 10.818C199.269 10.818 201.436 11.1861 203.495 11.9069L205.078 12.4611C208.003 13.4846 210.413 15.6069 211.799 18.378C212.804 20.3882 213.193 22.6504 212.918 24.881L209.175 55.2387L209.092 56.1887C208.321 64.9226 201.815 72.0679 193.192 73.6518C187.818 74.6388 182.365 75.1353 176.902 75.1353L172.158 75.1353L136.066 75.1353L134.923 91.1405C134.767 93.3295 133.718 95.3582 132.022 96.7515L104.27 119.556L88.4067 101.048Z" fill="white"/>
</svg>
