<svg width="554" height="301" viewBox="0 0 554 301" fill="none" xmlns="http://www.w3.org/2000/svg">
<path d="M82.2539 184.355H202.542L203.208 171.194L160.505 161.61C159.655 161.419 158.83 161.128 158.048 160.743L61.0778 112.913C59.9314 112.347 59.2692 111.118 59.4281 109.849L62.4614 85.6456L65.7601 69.194L71.6924 51.4426C75.3735 40.4274 85.6863 33.0004 97.3003 33.0004H291.175L240.594 84.5488H129.536L128.5 99.0193C128.464 99.524 128.81 99.9761 129.307 100.072L247.192 122.936L268.895 130.43C272.911 131.816 275.41 135.821 274.891 140.037L268.435 192.468C268.21 194.297 267.272 195.964 265.826 197.106L215.304 237H26.175L82.2539 184.355Z" fill="white"/>
<path d="M61.2596 123L65.5976 127.364L69.8788 130.809C70.6369 131.419 71.4663 131.935 72.3489 132.345L85.1187 138.273L137.175 159L90.5412 152.455L81.5978 150.819C79.6227 150.458 77.7272 149.75 75.9991 148.727L66.5259 143.122C62.6308 140.817 60.3637 136.517 60.663 132.001L61.2596 123Z" fill="white"/>
<path d="M226.588 245.561L334.481 157.485L362.004 134.365L435.768 134.366L436.437 134.433C442.483 135.037 448.158 131.323 450.08 125.558L454.335 90.4562C454.433 89.6465 454.35 88.825 454.092 88.0511C452.996 84.7638 450.029 82.4598 446.572 82.2129L436.869 81.5198L353.197 81.5198L346.591 134.365L280.535 185.008L301.453 30.8769L488.088 30.8769C491.35 30.8769 494.589 31.4274 497.668 32.5051L505.85 35.3687C511.741 37.4305 516.596 41.7059 519.388 47.2881L520.738 49.9891C522.763 54.0386 523.547 58.5957 522.993 63.0893L513.934 136.568L512.237 155.804C511.289 166.554 503.28 175.35 492.666 177.299L466.628 182.082C460.013 183.297 453.302 183.908 446.576 183.908L425.859 183.908L339.985 183.908L336.928 226.718C336.771 228.907 335.723 230.936 334.027 232.329L264.332 289.598L226.588 245.561Z" fill="white"/>
</svg>
